{"cells":[{"cell_type":"code","source":["!rm -rf *mp3\n","\n","import os\n","\n","cwd = os.getcwd()\n","\n","files = os.listdir(cwd)\n","\n","mp4_files = [f for f in files if f.endswith('.mp4') and f.startswith('orange')]\n","\n","mp3_files = [file.replace('.mp4', '.mp3') for file in mp4_files]\n","\n","for i in range(len(mp4_files)):\n","  !ffmpeg -i {mp4_files[i]} -vn -acodec libmp3lame -ab 64k {mp3_files[i]}\n"],"metadata":{"colab":{"base_uri":"https://localhost:8080/"},"id":"NCv5jVTo-mSF","executionInfo":{"status":"ok","timestamp":1713240993008,"user_tz":240,"elapsed":2428,"user":{"displayName":"Odin Huan","userId":"02251351221316418574"}},"outputId":"96efc20c-b157-437d-e4d2-8128b0218090"},"execution_count":null,"outputs":[{"output_type":"stream","name":"stdout","text":["ffmpeg version 4.4.2-0ubuntu0.22.04.1 Copyright (c) 2000-2021 the FFmpeg developers\n","  built with gcc 11 (Ubuntu 11.2.0-19ubuntu1)\n","  configuration: --prefix=/usr --extra-version=0ubuntu0.22.04.1 --toolchain=hardened --libdir=/usr/lib/x86_64-linux-gnu --incdir=/usr/include/x86_64-linux-gnu --arch=amd64 --enable-gpl --disable-stripping --enable-gnutls --enable-ladspa --enable-libaom --enable-libass --enable-libbluray --enable-libbs2b --enable-libcaca --enable-libcdio --enable-libcodec2 --enable-libdav1d --enable-libflite --enable-libfontconfig --enable-libfreetype --enable-libfribidi --enable-libgme --enable-libgsm --enable-libjack --enable-libmp3lame --enable-libmysofa --enable-libopenjpeg --enable-libopenmpt --enable-libopus --enable-libpulse --enable-librabbitmq --enable-librubberband --enable-libshine --enable-libsnappy --enable-libsoxr --enable-libspeex --enable-libsrt --enable-libssh --enable-libtheora --enable-libtwolame --enable-libvidstab --enable-libvorbis --enable-libvpx --enable-libwebp --enable-libx265 --enable-libxml2 --enable-libxvid --enable-libzimg --enable-libzmq --enable-libzvbi --enable-lv2 --enable-omx --enable-openal --enable-opencl --enable-opengl --enable-sdl2 --enable-pocketsphinx --enable-librsvg --enable-libmfx --enable-libdc1394 --enable-libdrm --enable-libiec61883 --enable-chromaprint --enable-frei0r --enable-libx264 --enable-shared\n","  libavutil      56. 70.100 / 56. 70.100\n","  libavcodec     58.134.100 / 58.134.100\n","  libavformat    58. 76.100 / 58. 76.100\n","  libavdevice    58. 13.100 / 58. 13.100\n","  libavfilter     7.110.100 /  7.110.100\n","  libswscale      5.  9.100 /  5.  9.100\n","  libswresample   3.  9.100 /  3.  9.100\n","  libpostproc    55.  9.100 / 55.  9.100\n","Input #0, mov,mp4,m4a,3gp,3g2,mj2, from 'orange11_49_to_54.mp4':\n","  Metadata:\n","    major_brand     : isom\n","    minor_version   : 512\n","    compatible_brands: isomiso2avc1mp41\n","    encoder         : Lavf58.76.100\n","  Duration: 00:00:05.00, start: 0.000000, bitrate: 118 kb/s\n","  Stream #0:0(und): Video: h264 (High) (avc1 / 0x31637661), yuv420p, 1000x400, 40 kb/s, 25 fps, 25 tbr, 12800 tbn, 50 tbc (default)\n","    Metadata:\n","      handler_name    : VideoHandler\n","      vendor_id       : [0][0][0][0]\n","  Stream #0:1(und): Audio: aac (LC) (mp4a / 0x6134706D), 32000 Hz, mono, fltp, 69 kb/s (default)\n","    Metadata:\n","      handler_name    : SoundHandler\n","      vendor_id       : [0][0][0][0]\n","Stream mapping:\n","  Stream #0:1 -> #0:0 (aac (native) -> mp3 (libmp3lame))\n","Press [q] to stop, [?] for help\n","Output #0, mp3, to 'orange11_49_to_54.mp3':\n","  Metadata:\n","    major_brand     : isom\n","    minor_version   : 512\n","    compatible_brands: isomiso2avc1mp41\n","    TSSE            : Lavf58.76.100\n","  Stream #0:0(und): Audio: mp3, 32000 Hz, mono, fltp, 64 kb/s (default)\n","    Metadata:\n","      handler_name    : SoundHandler\n","      vendor_id       : [0][0][0][0]\n","      encoder         : Lavc58.134.100 libmp3lame\n","size=       0kB time=00:00:00.00 bitrate=N/A speed=   0x    \rsize=      40kB time=00:00:05.00 bitrate=  65.6kbits/s speed= 111x    \n","video:0kB audio:40kB subtitle:0kB other streams:0kB global headers:0kB muxing overhead: 1.073680%\n","ffmpeg version 4.4.2-0ubuntu0.22.04.1 Copyright (c) 2000-2021 the FFmpeg developers\n","  built with gcc 11 (Ubuntu 11.2.0-19ubuntu1)\n","  configuration: --prefix=/usr --extra-version=0ubuntu0.22.04.1 --toolchain=hardened --libdir=/usr/lib/x86_64-linux-gnu --incdir=/usr/include/x86_64-linux-gnu --arch=amd64 --enable-gpl --disable-stripping --enable-gnutls --enable-ladspa --enable-libaom --enable-libass --enable-libbluray --enable-libbs2b --enable-libcaca --enable-libcdio --enable-libcodec2 --enable-libdav1d --enable-libflite --enable-libfontconfig --enable-libfreetype --enable-libfribidi --enable-libgme --enable-libgsm --enable-libjack --enable-libmp3lame --enable-libmysofa --enable-libopenjpeg --enable-libopenmpt --enable-libopus --enable-libpulse --enable-librabbitmq --enable-librubberband --enable-libshine --enable-libsnappy --enable-libsoxr --enable-libspeex --enable-libsrt --enable-libssh --enable-libtheora --enable-libtwolame --enable-libvidstab --enable-libvorbis --enable-libvpx --enable-libwebp --enable-libx265 --enable-libxml2 --enable-libxvid --enable-libzimg --enable-libzmq --enable-libzvbi --enable-lv2 --enable-omx --enable-openal --enable-opencl --enable-opengl --enable-sdl2 --enable-pocketsphinx --enable-librsvg --enable-libmfx --enable-libdc1394 --enable-libdrm --enable-libiec61883 --enable-chromaprint --enable-frei0r --enable-libx264 --enable-shared\n","  libavutil      56. 70.100 / 56. 70.100\n","  libavcodec     58.134.100 / 58.134.100\n","  libavformat    58. 76.100 / 58. 76.100\n","  libavdevice    58. 13.100 / 58. 13.100\n","  libavfilter     7.110.100 /  7.110.100\n","  libswscale      5.  9.100 /  5.  9.100\n","  libswresample   3.  9.100 /  3.  9.100\n","  libpostproc    55.  9.100 / 55.  9.100\n","Input #0, mov,mp4,m4a,3gp,3g2,mj2, from 'orange8_31_to_43.mp4':\n","  Metadata:\n","    major_brand     : isom\n","    minor_version   : 512\n","    compatible_brands: isomiso2avc1mp41\n","    encoder         : Lavf58.76.100\n","  Duration: 00:00:12.00, start: 0.000000, bitrate: 112 kb/s\n","  Stream #0:0(und): Video: h264 (High) (avc1 / 0x31637661), yuv420p, 1000x400, 36 kb/s, 25 fps, 25 tbr, 12800 tbn, 50 tbc (default)\n","    Metadata:\n","      handler_name    : VideoHandler\n","      vendor_id       : [0][0][0][0]\n","  Stream #0:1(und): Audio: aac (LC) (mp4a / 0x6134706D), 32000 Hz, mono, fltp, 69 kb/s (default)\n","    Metadata:\n","      handler_name    : SoundHandler\n","      vendor_id       : [0][0][0][0]\n","Stream mapping:\n","  Stream #0:1 -> #0:0 (aac (native) -> mp3 (libmp3lame))\n","Press [q] to stop, [?] for help\n","Output #0, mp3, to 'orange8_31_to_43.mp3':\n","  Metadata:\n","    major_brand     : isom\n","    minor_version   : 512\n","    compatible_brands: isomiso2avc1mp41\n","    TSSE            : Lavf58.76.100\n","  Stream #0:0(und): Audio: mp3, 32000 Hz, mono, fltp, 64 kb/s (default)\n","    Metadata:\n","      handler_name    : SoundHandler\n","      vendor_id       : [0][0][0][0]\n","      encoder         : Lavc58.134.100 libmp3lame\n","size=      95kB time=00:00:11.98 bitrate=  64.7kbits/s speed= 109x    \n","video:0kB audio:94kB subtitle:0kB other streams:0kB global headers:0kB muxing overhead: 0.451907%\n","ffmpeg version 4.4.2-0ubuntu0.22.04.1 Copyright (c) 2000-2021 the FFmpeg developers\n","  built with gcc 11 (Ubuntu 11.2.0-19ubuntu1)\n","  configuration: --prefix=/usr --extra-version=0ubuntu0.22.04.1 --toolchain=hardened --libdir=/usr/lib/x86_64-linux-gnu --incdir=/usr/include/x86_64-linux-gnu --arch=amd64 --enable-gpl --disable-stripping --enable-gnutls --enable-ladspa --enable-libaom --enable-libass --enable-libbluray --enable-libbs2b --enable-libcaca --enable-libcdio --enable-libcodec2 --enable-libdav1d --enable-libflite --enable-libfontconfig --enable-libfreetype --enable-libfribidi --enable-libgme --enable-libgsm --enable-libjack --enable-libmp3lame --enable-libmysofa --enable-libopenjpeg --enable-libopenmpt --enable-libopus --enable-libpulse --enable-librabbitmq --enable-librubberband --enable-libshine --enable-libsnappy --enable-libsoxr --enable-libspeex --enable-libsrt --enable-libssh --enable-libtheora --enable-libtwolame --enable-libvidstab --enable-libvorbis --enable-libvpx --enable-libwebp --enable-libx265 --enable-libxml2 --enable-libxvid --enable-libzimg --enable-libzmq --enable-libzvbi --enable-lv2 --enable-omx --enable-openal --enable-opencl --enable-opengl --enable-sdl2 --enable-pocketsphinx --enable-librsvg --enable-libmfx --enable-libdc1394 --enable-libdrm --enable-libiec61883 --enable-chromaprint --enable-frei0r --enable-libx264 --enable-shared\n","  libavutil      56. 70.100 / 56. 70.100\n","  libavcodec     58.134.100 / 58.134.100\n","  libavformat    58. 76.100 / 58. 76.100\n","  libavdevice    58. 13.100 / 58. 13.100\n","  libavfilter     7.110.100 /  7.110.100\n","  libswscale      5.  9.100 /  5.  9.100\n","  libswresample   3.  9.100 /  3.  9.100\n","  libpostproc    55.  9.100 / 55.  9.100\n","Input #0, mov,mp4,m4a,3gp,3g2,mj2, from 'orange2_4_to_11.mp4':\n","  Metadata:\n","    major_brand     : isom\n","    minor_version   : 512\n","    compatible_brands: isomiso2avc1mp41\n","    encoder         : Lavf58.76.100\n","  Duration: 00:00:07.00, start: 0.000000, bitrate: 116 kb/s\n","  Stream #0:0(und): Video: h264 (High) (avc1 / 0x31637661), yuv420p, 1000x400, 39 kb/s, 25 fps, 25 tbr, 12800 tbn, 50 tbc (default)\n","    Metadata:\n","      handler_name    : VideoHandler\n","      vendor_id       : [0][0][0][0]\n","  Stream #0:1(und): Audio: aac (LC) (mp4a / 0x6134706D), 32000 Hz, mono, fltp, 69 kb/s (default)\n","    Metadata:\n","      handler_name    : SoundHandler\n","      vendor_id       : [0][0][0][0]\n","Stream mapping:\n","  Stream #0:1 -> #0:0 (aac (native) -> mp3 (libmp3lame))\n","Press [q] to stop, [?] for help\n","Output #0, mp3, to 'orange2_4_to_11.mp3':\n","  Metadata:\n","    major_brand     : isom\n","    minor_version   : 512\n","    compatible_brands: isomiso2avc1mp41\n","    TSSE            : Lavf58.76.100\n","  Stream #0:0(und): Audio: mp3, 32000 Hz, mono, fltp, 64 kb/s (default)\n","    Metadata:\n","      handler_name    : SoundHandler\n","      vendor_id       : [0][0][0][0]\n","      encoder         : Lavc58.134.100 libmp3lame\n","size=      56kB time=00:00:06.98 bitrate=  65.1kbits/s speed=97.4x    \n","video:0kB audio:55kB subtitle:0kB other streams:0kB global headers:0kB muxing overhead: 0.772392%\n","ffmpeg version 4.4.2-0ubuntu0.22.04.1 Copyright (c) 2000-2021 the FFmpeg developers\n","  built with gcc 11 (Ubuntu 11.2.0-19ubuntu1)\n","  configuration: --prefix=/usr --extra-version=0ubuntu0.22.04.1 --toolchain=hardened --libdir=/usr/lib/x86_64-linux-gnu --incdir=/usr/include/x86_64-linux-gnu --arch=amd64 --enable-gpl --disable-stripping --enable-gnutls --enable-ladspa --enable-libaom --enable-libass --enable-libbluray --enable-libbs2b --enable-libcaca --enable-libcdio --enable-libcodec2 --enable-libdav1d --enable-libflite --enable-libfontconfig --enable-libfreetype --enable-libfribidi --enable-libgme --enable-libgsm --enable-libjack --enable-libmp3lame --enable-libmysofa --enable-libopenjpeg --enable-libopenmpt --enable-libopus --enable-libpulse --enable-librabbitmq --enable-librubberband --enable-libshine --enable-libsnappy --enable-libsoxr --enable-libspeex --enable-libsrt --enable-libssh --enable-libtheora --enable-libtwolame --enable-libvidstab --enable-libvorbis --enable-libvpx --enable-libwebp --enable-libx265 --enable-libxml2 --enable-libxvid --enable-libzimg --enable-libzmq --enable-libzvbi --enable-lv2 --enable-omx --enable-openal --enable-opencl --enable-opengl --enable-sdl2 --enable-pocketsphinx --enable-librsvg --enable-libmfx --enable-libdc1394 --enable-libdrm --enable-libiec61883 --enable-chromaprint --enable-frei0r --enable-libx264 --enable-shared\n","  libavutil      56. 70.100 / 56. 70.100\n","  libavcodec     58.134.100 / 58.134.100\n","  libavformat    58. 76.100 / 58. 76.100\n","  libavdevice    58. 13.100 / 58. 13.100\n","  libavfilter     7.110.100 /  7.110.100\n","  libswscale      5.  9.100 /  5.  9.100\n","  libswresample   3.  9.100 /  3.  9.100\n","  libpostproc    55.  9.100 / 55.  9.100\n","Input #0, mov,mp4,m4a,3gp,3g2,mj2, from 'orange6_21_to_27.mp4':\n","  Metadata:\n","    major_brand     : isom\n","    minor_version   : 512\n","    compatible_brands: isomiso2avc1mp41\n","    encoder         : Lavf58.76.100\n","  Duration: 00:00:06.00, start: 0.000000, bitrate: 119 kb/s\n","  Stream #0:0(und): Video: h264 (High) (avc1 / 0x31637661), yuv420p, 1000x400, 41 kb/s, 25 fps, 25 tbr, 12800 tbn, 50 tbc (default)\n","    Metadata:\n","      handler_name    : VideoHandler\n","      vendor_id       : [0][0][0][0]\n","  Stream #0:1(und): Audio: aac (LC) (mp4a / 0x6134706D), 32000 Hz, mono, fltp, 69 kb/s (default)\n","    Metadata:\n","      handler_name    : SoundHandler\n","      vendor_id       : [0][0][0][0]\n","Stream mapping:\n","  Stream #0:1 -> #0:0 (aac (native) -> mp3 (libmp3lame))\n","Press [q] to stop, [?] for help\n","Output #0, mp3, to 'orange6_21_to_27.mp3':\n","  Metadata:\n","    major_brand     : isom\n","    minor_version   : 512\n","    compatible_brands: isomiso2avc1mp41\n","    TSSE            : Lavf58.76.100\n","  Stream #0:0(und): Audio: mp3, 32000 Hz, mono, fltp, 64 kb/s (default)\n","    Metadata:\n","      handler_name    : SoundHandler\n","      vendor_id       : [0][0][0][0]\n","      encoder         : Lavc58.134.100 libmp3lame\n","size=      48kB time=00:00:06.01 bitrate=  65.3kbits/s speed= 101x    \n","video:0kB audio:48kB subtitle:0kB other streams:0kB global headers:0kB muxing overhead: 0.895792%\n","ffmpeg version 4.4.2-0ubuntu0.22.04.1 Copyright (c) 2000-2021 the FFmpeg developers\n","  built with gcc 11 (Ubuntu 11.2.0-19ubuntu1)\n","  configuration: --prefix=/usr --extra-version=0ubuntu0.22.04.1 --toolchain=hardened --libdir=/usr/lib/x86_64-linux-gnu --incdir=/usr/include/x86_64-linux-gnu --arch=amd64 --enable-gpl --disable-stripping --enable-gnutls --enable-ladspa --enable-libaom --enable-libass --enable-libbluray --enable-libbs2b --enable-libcaca --enable-libcdio --enable-libcodec2 --enable-libdav1d --enable-libflite --enable-libfontconfig --enable-libfreetype --enable-libfribidi --enable-libgme --enable-libgsm --enable-libjack --enable-libmp3lame --enable-libmysofa --enable-libopenjpeg --enable-libopenmpt --enable-libopus --enable-libpulse --enable-librabbitmq --enable-librubberband --enable-libshine --enable-libsnappy --enable-libsoxr --enable-libspeex --enable-libsrt --enable-libssh --enable-libtheora --enable-libtwolame --enable-libvidstab --enable-libvorbis --enable-libvpx --enable-libwebp --enable-libx265 --enable-libxml2 --enable-libxvid --enable-libzimg --enable-libzmq --enable-libzvbi --enable-lv2 --enable-omx --enable-openal --enable-opencl --enable-opengl --enable-sdl2 --enable-pocketsphinx --enable-librsvg --enable-libmfx --enable-libdc1394 --enable-libdrm --enable-libiec61883 --enable-chromaprint --enable-frei0r --enable-libx264 --enable-shared\n","  libavutil      56. 70.100 / 56. 70.100\n","  libavcodec     58.134.100 / 58.134.100\n","  libavformat    58. 76.100 / 58. 76.100\n","  libavdevice    58. 13.100 / 58. 13.100\n","  libavfilter     7.110.100 /  7.110.100\n","  libswscale      5.  9.100 /  5.  9.100\n","  libswresample   3.  9.100 /  3.  9.100\n","  libpostproc    55.  9.100 / 55.  9.100\n","Input #0, mov,mp4,m4a,3gp,3g2,mj2, from 'orange4_17_to_19.mp4':\n","  Metadata:\n","    major_brand     : isom\n","    minor_version   : 512\n","    compatible_brands: isomiso2avc1mp41\n","    encoder         : Lavf58.76.100\n","  Duration: 00:00:02.00, start: 0.000000, bitrate: 153 kb/s\n","  Stream #0:0(und): Video: h264 (High) (avc1 / 0x31637661), yuv420p, 1000x400, 70 kb/s, 25 fps, 25 tbr, 12800 tbn, 50 tbc (default)\n","    Metadata:\n","      handler_name    : VideoHandler\n","      vendor_id       : [0][0][0][0]\n","  Stream #0:1(und): Audio: aac (LC) (mp4a / 0x6134706D), 32000 Hz, mono, fltp, 71 kb/s (default)\n","    Metadata:\n","      handler_name    : SoundHandler\n","      vendor_id       : [0][0][0][0]\n","Stream mapping:\n","  Stream #0:1 -> #0:0 (aac (native) -> mp3 (libmp3lame))\n","Press [q] to stop, [?] for help\n","Output #0, mp3, to 'orange4_17_to_19.mp3':\n","  Metadata:\n","    major_brand     : isom\n","    minor_version   : 512\n","    compatible_brands: isomiso2avc1mp41\n","    TSSE            : Lavf58.76.100\n","  Stream #0:0(und): Audio: mp3, 32000 Hz, mono, fltp, 64 kb/s (default)\n","    Metadata:\n","      handler_name    : SoundHandler\n","      vendor_id       : [0][0][0][0]\n","      encoder         : Lavc58.134.100 libmp3lame\n","size=      16kB time=00:00:01.98 bitrate=  68.0kbits/s speed= 104x    \n","video:0kB audio:16kB subtitle:0kB other streams:0kB global headers:0kB muxing overhead: 2.655945%\n","ffmpeg version 4.4.2-0ubuntu0.22.04.1 Copyright (c) 2000-2021 the FFmpeg developers\n","  built with gcc 11 (Ubuntu 11.2.0-19ubuntu1)\n","  configuration: --prefix=/usr --extra-version=0ubuntu0.22.04.1 --toolchain=hardened --libdir=/usr/lib/x86_64-linux-gnu --incdir=/usr/include/x86_64-linux-gnu --arch=amd64 --enable-gpl --disable-stripping --enable-gnutls --enable-ladspa --enable-libaom --enable-libass --enable-libbluray --enable-libbs2b --enable-libcaca --enable-libcdio --enable-libcodec2 --enable-libdav1d --enable-libflite --enable-libfontconfig --enable-libfreetype --enable-libfribidi --enable-libgme --enable-libgsm --enable-libjack --enable-libmp3lame --enable-libmysofa --enable-libopenjpeg --enable-libopenmpt --enable-libopus --enable-libpulse --enable-librabbitmq --enable-librubberband --enable-libshine --enable-libsnappy --enable-libsoxr --enable-libspeex --enable-libsrt --enable-libssh --enable-libtheora --enable-libtwolame --enable-libvidstab --enable-libvorbis --enable-libvpx --enable-libwebp --enable-libx265 --enable-libxml2 --enable-libxvid --enable-libzimg --enable-libzmq --enable-libzvbi --enable-lv2 --enable-omx --enable-openal --enable-opencl --enable-opengl --enable-sdl2 --enable-pocketsphinx --enable-librsvg --enable-libmfx --enable-libdc1394 --enable-libdrm --enable-libiec61883 --enable-chromaprint --enable-frei0r --enable-libx264 --enable-shared\n","  libavutil      56. 70.100 / 56. 70.100\n","  libavcodec     58.134.100 / 58.134.100\n","  libavformat    58. 76.100 / 58. 76.100\n","  libavdevice    58. 13.100 / 58. 13.100\n","  libavfilter     7.110.100 /  7.110.100\n","  libswscale      5.  9.100 /  5.  9.100\n","  libswresample   3.  9.100 /  3.  9.100\n","  libpostproc    55.  9.100 / 55.  9.100\n","Input #0, mov,mp4,m4a,3gp,3g2,mj2, from 'orange3_11_to_17.mp4':\n","  Metadata:\n","    major_brand     : isom\n","    minor_version   : 512\n","    compatible_brands: isomiso2avc1mp41\n","    encoder         : Lavf58.76.100\n","  Duration: 00:00:06.00, start: 0.000000, bitrate: 119 kb/s\n","  Stream #0:0(und): Video: h264 (High) (avc1 / 0x31637661), yuv420p, 1000x400, 41 kb/s, 25 fps, 25 tbr, 12800 tbn, 50 tbc (default)\n","    Metadata:\n","      handler_name    : VideoHandler\n","      vendor_id       : [0][0][0][0]\n","  Stream #0:1(und): Audio: aac (LC) (mp4a / 0x6134706D), 32000 Hz, mono, fltp, 69 kb/s (default)\n","    Metadata:\n","      handler_name    : SoundHandler\n","      vendor_id       : [0][0][0][0]\n","Stream mapping:\n","  Stream #0:1 -> #0:0 (aac (native) -> mp3 (libmp3lame))\n","Press [q] to stop, [?] for help\n","Output #0, mp3, to 'orange3_11_to_17.mp3':\n","  Metadata:\n","    major_brand     : isom\n","    minor_version   : 512\n","    compatible_brands: isomiso2avc1mp41\n","    TSSE            : Lavf58.76.100\n","  Stream #0:0(und): Audio: mp3, 32000 Hz, mono, fltp, 64 kb/s (default)\n","    Metadata:\n","      handler_name    : SoundHandler\n","      vendor_id       : [0][0][0][0]\n","      encoder         : Lavc58.134.100 libmp3lame\n","size=      48kB time=00:00:06.01 bitrate=  65.3kbits/s speed=94.8x    \n","video:0kB audio:48kB subtitle:0kB other streams:0kB global headers:0kB muxing overhead: 0.895792%\n","ffmpeg version 4.4.2-0ubuntu0.22.04.1 Copyright (c) 2000-2021 the FFmpeg developers\n","  built with gcc 11 (Ubuntu 11.2.0-19ubuntu1)\n","  configuration: --prefix=/usr --extra-version=0ubuntu0.22.04.1 --toolchain=hardened --libdir=/usr/lib/x86_64-linux-gnu --incdir=/usr/include/x86_64-linux-gnu --arch=amd64 --enable-gpl --disable-stripping --enable-gnutls --enable-ladspa --enable-libaom --enable-libass --enable-libbluray --enable-libbs2b --enable-libcaca --enable-libcdio --enable-libcodec2 --enable-libdav1d --enable-libflite --enable-libfontconfig --enable-libfreetype --enable-libfribidi --enable-libgme --enable-libgsm --enable-libjack --enable-libmp3lame --enable-libmysofa --enable-libopenjpeg --enable-libopenmpt --enable-libopus --enable-libpulse --enable-librabbitmq --enable-librubberband --enable-libshine --enable-libsnappy --enable-libsoxr --enable-libspeex --enable-libsrt --enable-libssh --enable-libtheora --enable-libtwolame --enable-libvidstab --enable-libvorbis --enable-libvpx --enable-libwebp --enable-libx265 --enable-libxml2 --enable-libxvid --enable-libzimg --enable-libzmq --enable-libzvbi --enable-lv2 --enable-omx --enable-openal --enable-opencl --enable-opengl --enable-sdl2 --enable-pocketsphinx --enable-librsvg --enable-libmfx --enable-libdc1394 --enable-libdrm --enable-libiec61883 --enable-chromaprint --enable-frei0r --enable-libx264 --enable-shared\n","  libavutil      56. 70.100 / 56. 70.100\n","  libavcodec     58.134.100 / 58.134.100\n","  libavformat    58. 76.100 / 58. 76.100\n","  libavdevice    58. 13.100 / 58. 13.100\n","  libavfilter     7.110.100 /  7.110.100\n","  libswscale      5.  9.100 /  5.  9.100\n","  libswresample   3.  9.100 /  3.  9.100\n","  libpostproc    55.  9.100 / 55.  9.100\n","Input #0, mov,mp4,m4a,3gp,3g2,mj2, from 'orange7_27_to_31.mp4':\n","  Metadata:\n","    major_brand     : isom\n","    minor_version   : 512\n","    compatible_brands: isomiso2avc1mp41\n","    encoder         : Lavf58.76.100\n","  Duration: 00:00:04.00, start: 0.000000, bitrate: 131 kb/s\n","  Stream #0:0(und): Video: h264 (High) (avc1 / 0x31637661), yuv420p, 1000x400, 52 kb/s, 25 fps, 25 tbr, 12800 tbn, 50 tbc (default)\n","    Metadata:\n","      handler_name    : VideoHandler\n","      vendor_id       : [0][0][0][0]\n","  Stream #0:1(und): Audio: aac (LC) (mp4a / 0x6134706D), 32000 Hz, mono, fltp, 69 kb/s (default)\n","    Metadata:\n","      handler_name    : SoundHandler\n","      vendor_id       : [0][0][0][0]\n","Stream mapping:\n","  Stream #0:1 -> #0:0 (aac (native) -> mp3 (libmp3lame))\n","Press [q] to stop, [?] for help\n","Output #0, mp3, to 'orange7_27_to_31.mp3':\n","  Metadata:\n","    major_brand     : isom\n","    minor_version   : 512\n","    compatible_brands: isomiso2avc1mp41\n","    TSSE            : Lavf58.76.100\n","  Stream #0:0(und): Audio: mp3, 32000 Hz, mono, fltp, 64 kb/s (default)\n","    Metadata:\n","      handler_name    : SoundHandler\n","      vendor_id       : [0][0][0][0]\n","      encoder         : Lavc58.134.100 libmp3lame\n","size=      32kB time=00:00:03.99 bitrate=  66.0kbits/s speed=86.2x    \n","video:0kB audio:32kB subtitle:0kB other streams:0kB global headers:0kB muxing overhead: 1.339725%\n","ffmpeg version 4.4.2-0ubuntu0.22.04.1 Copyright (c) 2000-2021 the FFmpeg developers\n","  built with gcc 11 (Ubuntu 11.2.0-19ubuntu1)\n","  configuration: --prefix=/usr --extra-version=0ubuntu0.22.04.1 --toolchain=hardened --libdir=/usr/lib/x86_64-linux-gnu --incdir=/usr/include/x86_64-linux-gnu --arch=amd64 --enable-gpl --disable-stripping --enable-gnutls --enable-ladspa --enable-libaom --enable-libass --enable-libbluray --enable-libbs2b --enable-libcaca --enable-libcdio --enable-libcodec2 --enable-libdav1d --enable-libflite --enable-libfontconfig --enable-libfreetype --enable-libfribidi --enable-libgme --enable-libgsm --enable-libjack --enable-libmp3lame --enable-libmysofa --enable-libopenjpeg --enable-libopenmpt --enable-libopus --enable-libpulse --enable-librabbitmq --enable-librubberband --enable-libshine --enable-libsnappy --enable-libsoxr --enable-libspeex --enable-libsrt --enable-libssh --enable-libtheora --enable-libtwolame --enable-libvidstab --enable-libvorbis --enable-libvpx --enable-libwebp --enable-libx265 --enable-libxml2 --enable-libxvid --enable-libzimg --enable-libzmq --enable-libzvbi --enable-lv2 --enable-omx --enable-openal --enable-opencl --enable-opengl --enable-sdl2 --enable-pocketsphinx --enable-librsvg --enable-libmfx --enable-libdc1394 --enable-libdrm --enable-libiec61883 --enable-chromaprint --enable-frei0r --enable-libx264 --enable-shared\n","  libavutil      56. 70.100 / 56. 70.100\n","  libavcodec     58.134.100 / 58.134.100\n","  libavformat    58. 76.100 / 58. 76.100\n","  libavdevice    58. 13.100 / 58. 13.100\n","  libavfilter     7.110.100 /  7.110.100\n","  libswscale      5.  9.100 /  5.  9.100\n","  libswresample   3.  9.100 /  3.  9.100\n","  libpostproc    55.  9.100 / 55.  9.100\n","Input #0, mov,mp4,m4a,3gp,3g2,mj2, from 'orange1_0_to_4.mp4':\n","  Metadata:\n","    major_brand     : isom\n","    minor_version   : 512\n","    compatible_brands: isomiso2avc1mp41\n","    encoder         : Lavf58.76.100\n","  Duration: 00:00:04.00, start: 0.000000, bitrate: 129 kb/s\n","  Stream #0:0(und): Video: h264 (High) (avc1 / 0x31637661), yuv420p, 1000x400, 51 kb/s, 25 fps, 25 tbr, 12800 tbn, 50 tbc (default)\n","    Metadata:\n","      handler_name    : VideoHandler\n","      vendor_id       : [0][0][0][0]\n","  Stream #0:1(und): Audio: aac (LC) (mp4a / 0x6134706D), 32000 Hz, mono, fltp, 70 kb/s (default)\n","    Metadata:\n","      handler_name    : SoundHandler\n","      vendor_id       : [0][0][0][0]\n","Stream mapping:\n","  Stream #0:1 -> #0:0 (aac (native) -> mp3 (libmp3lame))\n","Press [q] to stop, [?] for help\n","Output #0, mp3, to 'orange1_0_to_4.mp3':\n","  Metadata:\n","    major_brand     : isom\n","    minor_version   : 512\n","    compatible_brands: isomiso2avc1mp41\n","    TSSE            : Lavf58.76.100\n","  Stream #0:0(und): Audio: mp3, 32000 Hz, mono, fltp, 64 kb/s (default)\n","    Metadata:\n","      handler_name    : SoundHandler\n","      vendor_id       : [0][0][0][0]\n","      encoder         : Lavc58.134.100 libmp3lame\n","size=      32kB time=00:00:03.99 bitrate=  66.0kbits/s speed=  80x    \n","video:0kB audio:32kB subtitle:0kB other streams:0kB global headers:0kB muxing overhead: 1.339725%\n","ffmpeg version 4.4.2-0ubuntu0.22.04.1 Copyright (c) 2000-2021 the FFmpeg developers\n","  built with gcc 11 (Ubuntu 11.2.0-19ubuntu1)\n","  configuration: --prefix=/usr --extra-version=0ubuntu0.22.04.1 --toolchain=hardened --libdir=/usr/lib/x86_64-linux-gnu --incdir=/usr/include/x86_64-linux-gnu --arch=amd64 --enable-gpl --disable-stripping --enable-gnutls --enable-ladspa --enable-libaom --enable-libass --enable-libbluray --enable-libbs2b --enable-libcaca --enable-libcdio --enable-libcodec2 --enable-libdav1d --enable-libflite --enable-libfontconfig --enable-libfreetype --enable-libfribidi --enable-libgme --enable-libgsm --enable-libjack --enable-libmp3lame --enable-libmysofa --enable-libopenjpeg --enable-libopenmpt --enable-libopus --enable-libpulse --enable-librabbitmq --enable-librubberband --enable-libshine --enable-libsnappy --enable-libsoxr --enable-libspeex --enable-libsrt --enable-libssh --enable-libtheora --enable-libtwolame --enable-libvidstab --enable-libvorbis --enable-libvpx --enable-libwebp --enable-libx265 --enable-libxml2 --enable-libxvid --enable-libzimg --enable-libzmq --enable-libzvbi --enable-lv2 --enable-omx --enable-openal --enable-opencl --enable-opengl --enable-sdl2 --enable-pocketsphinx --enable-librsvg --enable-libmfx --enable-libdc1394 --enable-libdrm --enable-libiec61883 --enable-chromaprint --enable-frei0r --enable-libx264 --enable-shared\n","  libavutil      56. 70.100 / 56. 70.100\n","  libavcodec     58.134.100 / 58.134.100\n","  libavformat    58. 76.100 / 58. 76.100\n","  libavdevice    58. 13.100 / 58. 13.100\n","  libavfilter     7.110.100 /  7.110.100\n","  libswscale      5.  9.100 /  5.  9.100\n","  libswresample   3.  9.100 /  3.  9.100\n","  libpostproc    55.  9.100 / 55.  9.100\n","Input #0, mov,mp4,m4a,3gp,3g2,mj2, from 'orange10_45_to_49.mp4':\n","  Metadata:\n","    major_brand     : isom\n","    minor_version   : 512\n","    compatible_brands: isomiso2avc1mp41\n","    encoder         : Lavf58.76.100\n","  Duration: 00:00:04.00, start: 0.000000, bitrate: 130 kb/s\n","  Stream #0:0(und): Video: h264 (High) (avc1 / 0x31637661), yuv420p, 1000x400, 52 kb/s, 25 fps, 25 tbr, 12800 tbn, 50 tbc (default)\n","    Metadata:\n","      handler_name    : VideoHandler\n","      vendor_id       : [0][0][0][0]\n","  Stream #0:1(und): Audio: aac (LC) (mp4a / 0x6134706D), 32000 Hz, mono, fltp, 70 kb/s (default)\n","    Metadata:\n","      handler_name    : SoundHandler\n","      vendor_id       : [0][0][0][0]\n","Stream mapping:\n","  Stream #0:1 -> #0:0 (aac (native) -> mp3 (libmp3lame))\n","Press [q] to stop, [?] for help\n","Output #0, mp3, to 'orange10_45_to_49.mp3':\n","  Metadata:\n","    major_brand     : isom\n","    minor_version   : 512\n","    compatible_brands: isomiso2avc1mp41\n","    TSSE            : Lavf58.76.100\n","  Stream #0:0(und): Audio: mp3, 32000 Hz, mono, fltp, 64 kb/s (default)\n","    Metadata:\n","      handler_name    : SoundHandler\n","      vendor_id       : [0][0][0][0]\n","      encoder         : Lavc58.134.100 libmp3lame\n","size=      32kB time=00:00:03.99 bitrate=  66.0kbits/s speed=58.8x    \n","video:0kB audio:32kB subtitle:0kB other streams:0kB global headers:0kB muxing overhead: 1.339725%\n","ffmpeg version 4.4.2-0ubuntu0.22.04.1 Copyright (c) 2000-2021 the FFmpeg developers\n","  built with gcc 11 (Ubuntu 11.2.0-19ubuntu1)\n","  configuration: --prefix=/usr --extra-version=0ubuntu0.22.04.1 --toolchain=hardened --libdir=/usr/lib/x86_64-linux-gnu --incdir=/usr/include/x86_64-linux-gnu --arch=amd64 --enable-gpl --disable-stripping --enable-gnutls --enable-ladspa --enable-libaom --enable-libass --enable-libbluray --enable-libbs2b --enable-libcaca --enable-libcdio --enable-libcodec2 --enable-libdav1d --enable-libflite --enable-libfontconfig --enable-libfreetype --enable-libfribidi --enable-libgme --enable-libgsm --enable-libjack --enable-libmp3lame --enable-libmysofa --enable-libopenjpeg --enable-libopenmpt --enable-libopus --enable-libpulse --enable-librabbitmq --enable-librubberband --enable-libshine --enable-libsnappy --enable-libsoxr --enable-libspeex --enable-libsrt --enable-libssh --enable-libtheora --enable-libtwolame --enable-libvidstab --enable-libvorbis --enable-libvpx --enable-libwebp --enable-libx265 --enable-libxml2 --enable-libxvid --enable-libzimg --enable-libzmq --enable-libzvbi --enable-lv2 --enable-omx --enable-openal --enable-opencl --enable-opengl --enable-sdl2 --enable-pocketsphinx --enable-librsvg --enable-libmfx --enable-libdc1394 --enable-libdrm --enable-libiec61883 --enable-chromaprint --enable-frei0r --enable-libx264 --enable-shared\n","  libavutil      56. 70.100 / 56. 70.100\n","  libavcodec     58.134.100 / 58.134.100\n","  libavformat    58. 76.100 / 58. 76.100\n","  libavdevice    58. 13.100 / 58. 13.100\n","  libavfilter     7.110.100 /  7.110.100\n","  libswscale      5.  9.100 /  5.  9.100\n","  libswresample   3.  9.100 /  3.  9.100\n","  libpostproc    55.  9.100 / 55.  9.100\n","Input #0, mov,mp4,m4a,3gp,3g2,mj2, from 'orange9_43_to_45.mp4':\n","  Metadata:\n","    major_brand     : isom\n","    minor_version   : 512\n","    compatible_brands: isomiso2avc1mp41\n","    encoder         : Lavf58.76.100\n","  Duration: 00:00:02.00, start: 0.000000, bitrate: 153 kb/s\n","  Stream #0:0(und): Video: h264 (High) (avc1 / 0x31637661), yuv420p, 1000x400, 70 kb/s, 25 fps, 25 tbr, 12800 tbn, 50 tbc (default)\n","    Metadata:\n","      handler_name    : VideoHandler\n","      vendor_id       : [0][0][0][0]\n","  Stream #0:1(und): Audio: aac (LC) (mp4a / 0x6134706D), 32000 Hz, mono, fltp, 71 kb/s (default)\n","    Metadata:\n","      handler_name    : SoundHandler\n","      vendor_id       : [0][0][0][0]\n","Stream mapping:\n","  Stream #0:1 -> #0:0 (aac (native) -> mp3 (libmp3lame))\n","Press [q] to stop, [?] for help\n","Output #0, mp3, to 'orange9_43_to_45.mp3':\n","  Metadata:\n","    major_brand     : isom\n","    minor_version   : 512\n","    compatible_brands: isomiso2avc1mp41\n","    TSSE            : Lavf58.76.100\n","  Stream #0:0(und): Audio: mp3, 32000 Hz, mono, fltp, 64 kb/s (default)\n","    Metadata:\n","      handler_name    : SoundHandler\n","      vendor_id       : [0][0][0][0]\n","      encoder         : Lavc58.134.100 libmp3lame\n","size=      16kB time=00:00:01.98 bitrate=  68.0kbits/s speed=85.5x    \n","video:0kB audio:16kB subtitle:0kB other streams:0kB global headers:0kB muxing overhead: 2.655945%\n","ffmpeg version 4.4.2-0ubuntu0.22.04.1 Copyright (c) 2000-2021 the FFmpeg developers\n","  built with gcc 11 (Ubuntu 11.2.0-19ubuntu1)\n","  configuration: --prefix=/usr --extra-version=0ubuntu0.22.04.1 --toolchain=hardened --libdir=/usr/lib/x86_64-linux-gnu --incdir=/usr/include/x86_64-linux-gnu --arch=amd64 --enable-gpl --disable-stripping --enable-gnutls --enable-ladspa --enable-libaom --enable-libass --enable-libbluray --enable-libbs2b --enable-libcaca --enable-libcdio --enable-libcodec2 --enable-libdav1d --enable-libflite --enable-libfontconfig --enable-libfreetype --enable-libfribidi --enable-libgme --enable-libgsm --enable-libjack --enable-libmp3lame --enable-libmysofa --enable-libopenjpeg --enable-libopenmpt --enable-libopus --enable-libpulse --enable-librabbitmq --enable-librubberband --enable-libshine --enable-libsnappy --enable-libsoxr --enable-libspeex --enable-libsrt --enable-libssh --enable-libtheora --enable-libtwolame --enable-libvidstab --enable-libvorbis --enable-libvpx --enable-libwebp --enable-libx265 --enable-libxml2 --enable-libxvid --enable-libzimg --enable-libzmq --enable-libzvbi --enable-lv2 --enable-omx --enable-openal --enable-opencl --enable-opengl --enable-sdl2 --enable-pocketsphinx --enable-librsvg --enable-libmfx --enable-libdc1394 --enable-libdrm --enable-libiec61883 --enable-chromaprint --enable-frei0r --enable-libx264 --enable-shared\n","  libavutil      56. 70.100 / 56. 70.100\n","  libavcodec     58.134.100 / 58.134.100\n","  libavformat    58. 76.100 / 58. 76.100\n","  libavdevice    58. 13.100 / 58. 13.100\n","  libavfilter     7.110.100 /  7.110.100\n","  libswscale      5.  9.100 /  5.  9.100\n","  libswresample   3.  9.100 /  3.  9.100\n","  libpostproc    55.  9.100 / 55.  9.100\n","Input #0, mov,mp4,m4a,3gp,3g2,mj2, from 'orange5_19_to_21.mp4':\n","  Metadata:\n","    major_brand     : isom\n","    minor_version   : 512\n","    compatible_brands: isomiso2avc1mp41\n","    encoder         : Lavf58.76.100\n","  Duration: 00:00:02.00, start: 0.000000, bitrate: 156 kb/s\n","  Stream #0:0(und): Video: h264 (High) (avc1 / 0x31637661), yuv420p, 1000x400, 73 kb/s, 25 fps, 25 tbr, 12800 tbn, 50 tbc (default)\n","    Metadata:\n","      handler_name    : VideoHandler\n","      vendor_id       : [0][0][0][0]\n","  Stream #0:1(und): Audio: aac (LC) (mp4a / 0x6134706D), 32000 Hz, mono, fltp, 71 kb/s (default)\n","    Metadata:\n","      handler_name    : SoundHandler\n","      vendor_id       : [0][0][0][0]\n","Stream mapping:\n","  Stream #0:1 -> #0:0 (aac (native) -> mp3 (libmp3lame))\n","Press [q] to stop, [?] for help\n","Output #0, mp3, to 'orange5_19_to_21.mp3':\n","  Metadata:\n","    major_brand     : isom\n","    minor_version   : 512\n","    compatible_brands: isomiso2avc1mp41\n","    TSSE            : Lavf58.76.100\n","  Stream #0:0(und): Audio: mp3, 32000 Hz, mono, fltp, 64 kb/s (default)\n","    Metadata:\n","      handler_name    : SoundHandler\n","      vendor_id       : [0][0][0][0]\n","      encoder         : Lavc58.134.100 libmp3lame\n","size=      16kB time=00:00:01.98 bitrate=  68.0kbits/s speed=39.6x    \n","video:0kB audio:16kB subtitle:0kB other streams:0kB global headers:0kB muxing overhead: 2.655945%\n"]}]},{"cell_type":"code","source":["\n","import re\n","\n","tuples = []\n","\n","for file in mp3_files:\n","  numbers = re.findall(r'\\d+', file)\n","\n","  tuple = (int(numbers[0]), int(numbers[1]), int(numbers[2]))\n","\n","  tuples.append(tuple)\n","\n","print(tuples)\n"],"metadata":{"colab":{"base_uri":"https://localhost:8080/"},"id":"YH8nLuim_H_Q","executionInfo":{"status":"ok","timestamp":1713240994472,"user_tz":240,"elapsed":245,"user":{"displayName":"Odin Huan","userId":"02251351221316418574"}},"outputId":"6d01dbab-bfe5-4893-efb6-045f6a90ccab"},"execution_count":null,"outputs":[{"output_type":"stream","name":"stdout","text":["[(11, 49, 54), (8, 31, 43), (2, 4, 11), (6, 21, 27), (4, 17, 19), (3, 11, 17), (7, 27, 31), (1, 0, 4), (10, 45, 49), (9, 43, 45), (5, 19, 21)]\n"]}]},{"cell_type":"code","source":["mp3_files\n"],"metadata":{"colab":{"base_uri":"https://localhost:8080/"},"id":"SC4zIV9rHPpM","executionInfo":{"status":"ok","timestamp":1713240943607,"user_tz":240,"elapsed":255,"user":{"displayName":"Odin Huan","userId":"02251351221316418574"}},"outputId":"50d7a590-ff3b-4fd4-d71f-38bccfb2d079"},"execution_count":null,"outputs":[{"output_type":"execute_result","data":{"text/plain":["['orange11_49_to_54.mp3',\n"," 'orange8_31_to_43.mp3',\n"," 'orange2_4_to_11.mp3',\n"," 'orange6_21_to_27.mp3',\n"," 'orange4_17_to_19.mp3',\n"," 'orange3_11_to_17.mp3',\n"," 'orange7_27_to_31.mp3',\n"," 'orange1_0_to_4.mp3',\n"," 'orange10_45_to_49.mp3',\n"," 'orange9_43_to_45.mp3',\n"," 'orange5_19_to_21.mp3',\n"," 'orange.mp3']"]},"metadata":{},"execution_count":27}]},{"cell_type":"code","source":["\n","tuples_with_indices = []\n","\n","for i, tuple in enumerate(tuples):\n","  tuples_with_indices.append((tuple, i))\n","\n","sorted_tuples_with_indices = sorted(tuples_with_indices, key=lambda x: x[0][0])\n","\n","for tuple, index in sorted_tuples_with_indices:\n","  print(f\"Tuple: {tuple}, Original index: {index}\")\n"],"metadata":{"colab":{"base_uri":"https://localhost:8080/"},"id":"y2M4UD-F_35V","executionInfo":{"status":"ok","timestamp":1713240999567,"user_tz":240,"elapsed":255,"user":{"displayName":"Odin Huan","userId":"02251351221316418574"}},"outputId":"5247702c-e809-404c-dbd7-8b3097fcaba3"},"execution_count":null,"outputs":[{"output_type":"stream","name":"stdout","text":["Tuple: (1, 0, 4), Original index: 7\n","Tuple: (2, 4, 11), Original index: 2\n","Tuple: (3, 11, 17), Original index: 5\n","Tuple: (4, 17, 19), Original index: 4\n","Tuple: (5, 19, 21), Original index: 10\n","Tuple: (6, 21, 27), Original index: 3\n","Tuple: (7, 27, 31), Original index: 6\n","Tuple: (8, 31, 43), Original index: 1\n","Tuple: (9, 43, 45), Original index: 9\n","Tuple: (10, 45, 49), Original index: 8\n","Tuple: (11, 49, 54), Original index: 0\n"]}]},{"cell_type":"code","source":["!pip install moviepy"],"metadata":{"colab":{"base_uri":"https://localhost:8080/"},"id":"9i5PptBvBYM_","executionInfo":{"status":"ok","timestamp":1713239388790,"user_tz":240,"elapsed":5918,"user":{"displayName":"Odin Huan","userId":"02251351221316418574"}},"outputId":"686a6ed5-c92e-4b42-f97f-38c1317db354"},"execution_count":null,"outputs":[{"output_type":"stream","name":"stdout","text":["Requirement already satisfied: moviepy in /usr/local/lib/python3.10/dist-packages (1.0.3)\n","Requirement already satisfied: decorator<5.0,>=4.0.2 in /usr/local/lib/python3.10/dist-packages (from moviepy) (4.4.2)\n","Requirement already satisfied: tqdm<5.0,>=4.11.2 in /usr/local/lib/python3.10/dist-packages (from moviepy) (4.66.2)\n","Requirement already satisfied: requests<3.0,>=2.8.1 in /usr/local/lib/python3.10/dist-packages (from moviepy) (2.31.0)\n","Requirement already satisfied: proglog<=1.0.0 in /usr/local/lib/python3.10/dist-packages (from moviepy) (0.1.10)\n","Requirement already satisfied: numpy>=1.17.3 in /usr/local/lib/python3.10/dist-packages (from moviepy) (1.25.2)\n","Requirement already satisfied: imageio<3.0,>=2.5 in /usr/local/lib/python3.10/dist-packages (from moviepy) (2.31.6)\n","Requirement already satisfied: imageio-ffmpeg>=0.2.0 in /usr/local/lib/python3.10/dist-packages (from moviepy) (0.4.9)\n","Requirement already satisfied: pillow<10.1.0,>=8.3.2 in /usr/local/lib/python3.10/dist-packages (from imageio<3.0,>=2.5->moviepy) (9.4.0)\n","Requirement already satisfied: setuptools in /usr/local/lib/python3.10/dist-packages (from imageio-ffmpeg>=0.2.0->moviepy) (67.7.2)\n","Requirement already satisfied: charset-normalizer<4,>=2 in /usr/local/lib/python3.10/dist-packages (from requests<3.0,>=2.8.1->moviepy) (3.3.2)\n","Requirement already satisfied: idna<4,>=2.5 in /usr/local/lib/python3.10/dist-packages (from requests<3.0,>=2.8.1->moviepy) (3.6)\n","Requirement already satisfied: urllib3<3,>=1.21.1 in /usr/local/lib/python3.10/dist-packages (from requests<3.0,>=2.8.1->moviepy) (2.0.7)\n","Requirement already satisfied: certifi>=2017.4.17 in /usr/local/lib/python3.10/dist-packages (from requests<3.0,>=2.8.1->moviepy) (2024.2.2)\n"]}]},{"cell_type":"code","source":["\n","from moviepy.editor import VideoFileClip, AudioFileClip, concatenate_audioclips\n","\n","# change the file name from orange.mp4 to origin.mp4\n","video_path = \"origin.mp4\"\n","video_clip = VideoFileClip(video_path)\n","\n","audio_clips = []\n","\n","\n","audio_files = []\n","iddx = 0\n","real_start_times = [0,\n","3.871,\n","10.844,\n","16.817,\n","19.086,\n","20.888,\n","26.793,\n","30.831,\n","43.443,\n","45.045,\n","49.383]\n","for tuple, index in sorted_tuples_with_indices:\n","    print(f\"Tuple: {tuple}, Original index: {index}\")\n","    audio_files.append((mp3_files[index], real_start_times[iddx]))\n","    iddx += 1\n","# for i in range(len(audio_files)):\n","\n","\n","\n","for audio_file, start_time in audio_files:\n","    audio_clip = AudioFileClip(audio_file)\n","    audio_clip = audio_clip.set_start(start_time)\n","    audio_clips.append(audio_clip)\n","\n","\n","final_audio = concatenate_audioclips(audio_clips)\n","\n","video_clip = video_clip.set_audio(final_audio)\n","\n","output_path = \"precise_output_video.mp4\"\n","video_clip.write_videofile(output_path, codec=\"libx264\", audio_codec=\"aac\")\n","\n","\n","video_clip.close()\n","final_audio.close()\n","\n","\n"],"metadata":{"colab":{"base_uri":"https://localhost:8080/"},"id":"C4HXl5U68qk0","executionInfo":{"status":"ok","timestamp":1713241018799,"user_tz":240,"elapsed":7979,"user":{"displayName":"Odin Huan","userId":"02251351221316418574"}},"outputId":"fd9a46e3-bfda-4064-a3aa-328318895b07"},"execution_count":null,"outputs":[{"output_type":"stream","name":"stdout","text":["Tuple: (1, 0, 4), Original index: 7\n","Tuple: (2, 4, 11), Original index: 2\n","Tuple: (3, 11, 17), Original index: 5\n","Tuple: (4, 17, 19), Original index: 4\n","Tuple: (5, 19, 21), Original index: 10\n","Tuple: (6, 21, 27), Original index: 3\n","Tuple: (7, 27, 31), Original index: 6\n","Tuple: (8, 31, 43), Original index: 1\n","Tuple: (9, 43, 45), Original index: 9\n","Tuple: (10, 45, 49), Original index: 8\n","Tuple: (11, 49, 54), Original index: 0\n","Moviepy - Building video precise_output_video.mp4.\n","MoviePy - Writing audio in precise_output_videoTEMP_MPY_wvf_snd.mp4\n"]},{"output_type":"stream","name":"stderr","text":[]},{"output_type":"stream","name":"stdout","text":["MoviePy - Done.\n","Moviepy - Writing video precise_output_video.mp4\n","\n"]},{"output_type":"stream","name":"stderr","text":["t:  99%|█████████▊| 1596/1619 [00:06<00:00, 264.88it/s, now=None]WARNING:py.warnings:/usr/local/lib/python3.10/dist-packages/moviepy/video/io/ffmpeg_reader.py:123: UserWarning: Warning: in file origin.mp4, 230400 bytes wanted but 0 bytes read,at frame 1613/1619, at time 53.82/53.99 sec. Using the last valid frame instead.\n","  warnings.warn(\"Warning: in file %s, \"%(self.filename)+\n","\n","WARNING:py.warnings:/usr/local/lib/python3.10/dist-packages/moviepy/video/io/ffmpeg_reader.py:123: UserWarning: Warning: in file origin.mp4, 230400 bytes wanted but 0 bytes read,at frame 1614/1619, at time 53.85/53.99 sec. Using the last valid frame instead.\n","  warnings.warn(\"Warning: in file %s, \"%(self.filename)+\n","\n","WARNING:py.warnings:/usr/local/lib/python3.10/dist-packages/moviepy/video/io/ffmpeg_reader.py:123: UserWarning: Warning: in file origin.mp4, 230400 bytes wanted but 0 bytes read,at frame 1615/1619, at time 53.89/53.99 sec. Using the last valid frame instead.\n","  warnings.warn(\"Warning: in file %s, \"%(self.filename)+\n","\n","WARNING:py.warnings:/usr/local/lib/python3.10/dist-packages/moviepy/video/io/ffmpeg_reader.py:123: UserWarning: Warning: in file origin.mp4, 230400 bytes wanted but 0 bytes read,at frame 1616/1619, at time 53.92/53.99 sec. Using the last valid frame instead.\n","  warnings.warn(\"Warning: in file %s, \"%(self.filename)+\n","\n","WARNING:py.warnings:/usr/local/lib/python3.10/dist-packages/moviepy/video/io/ffmpeg_reader.py:123: UserWarning: Warning: in file origin.mp4, 230400 bytes wanted but 0 bytes read,at frame 1617/1619, at time 53.95/53.99 sec. Using the last valid frame instead.\n","  warnings.warn(\"Warning: in file %s, \"%(self.filename)+\n","\n","WARNING:py.warnings:/usr/local/lib/python3.10/dist-packages/moviepy/video/io/ffmpeg_reader.py:123: UserWarning: Warning: in file origin.mp4, 230400 bytes wanted but 0 bytes read,at frame 1618/1619, at time 53.99/53.99 sec. Using the last valid frame instead.\n","  warnings.warn(\"Warning: in file %s, \"%(self.filename)+\n","\n"]},{"output_type":"stream","name":"stdout","text":["Moviepy - Done !\n","Moviepy - video ready precise_output_video.mp4\n"]}]}],"metadata":{"kernelspec":{"display_name":"Python 3","name":"python3"},"language_info":{"codemirror_mode":{"name":"ipython","version":3},"file_extension":".py","mimetype":"text/x-python","name":"python","nbconvert_exporter":"python","pygments_lexer":"ipython3","version":"3.9.16"},"vscode":{"interpreter":{"hash":"b02c911f9b3627d505ea4a19966a915ef21f28afb50dbf6b2115072d27c69103"}},"colab":{"provenance":[]}},"nbformat":4,"nbformat_minor":0}